<?xml version="1.0" standalone="no"?>
<!DOCTYPE svg PUBLIC "-//W3C//DTD SVG 20010904//EN"
 "http://www.w3.org/TR/2001/REC-SVG-20010904/DTD/svg10.dtd">
<svg version="1.0" xmlns="http://www.w3.org/2000/svg"
 width="1200.000000pt" height="1200.000000pt" viewBox="0 0 1200.000000 1200.000000"
 preserveAspectRatio="xMidYMid meet">
<metadata>
Created by potrace 1.14, written by Peter Selinger 2001-2017
</metadata>
<g transform="translate(0.000000,1200.000000) scale(0.100000,-0.100000)"
fill="#000000" stroke="none">
<path d="M5718 11995 c-2 -1 -55 -6 -118 -9 -63 -4 -128 -8 -145 -11 -16 -2
-55 -6 -85 -9 -123 -12 -212 -24 -385 -52 -161 -26 -413 -84 -685 -158 -79
-22 -319 -103 -430 -146 -64 -24 -73 -27 -80 -27 -3 0 -23 -10 -45 -22 -22
-11 -43 -21 -47 -21 -5 0 -27 -8 -51 -19 -23 -10 -76 -34 -117 -52 -105 -47
-398 -196 -504 -258 -49 -28 -93 -51 -97 -51 -5 0 -9 -4 -9 -10 0 -5 -5 -10
-12 -10 -6 0 -26 -11 -44 -25 -18 -14 -36 -25 -39 -25 -18 0 -432 -289 -521
-364 -10 -8 -48 -39 -84 -67 -304 -242 -686 -630 -930 -944 -30 -38 -59 -75
-65 -82 -82 -99 -281 -395 -400 -595 -124 -208 -289 -543 -391 -793 -108 -264
-256 -744 -289 -934 -3 -19 -8 -37 -10 -40 -2 -4 -13 -60 -25 -126 -23 -128
-24 -133 -39 -223 -14 -81 -27 -183 -37 -287 -3 -38 -8 -78 -10 -87 -11 -60
-19 -293 -18 -543 0 -317 7 -474 31 -665 4 -30 8 -62 8 -70 22 -204 105 -644
146 -776 5 -17 11 -40 13 -51 26 -135 195 -620 282 -810 13 -28 24 -55 24 -58
0 -4 45 -98 99 -209 236 -477 493 -868 845 -1281 196 -229 535 -559 756 -735
24 -19 58 -47 75 -61 103 -89 507 -366 655 -451 278 -159 501 -272 695 -353
50 -21 104 -44 121 -51 55 -24 301 -113 402 -145 172 -56 349 -103 557 -150
118 -27 108 -25 248 -49 232 -39 250 -41 397 -55 47 -4 94 -9 105 -11 126 -24
927 -24 1075 0 14 2 59 7 100 11 41 3 107 10 145 16 39 5 85 12 103 14 61 9
107 17 207 35 141 27 153 29 220 46 33 8 69 16 80 18 37 7 219 55 290 76 39
12 77 23 85 25 22 6 295 99 365 125 277 103 702 310 950 463 122 75 270 172
273 179 2 5 8 8 13 8 12 0 310 217 358 260 9 8 33 27 53 42 20 15 42 33 50 40
7 7 45 40 83 73 118 100 164 144 330 310 188 188 218 221 351 380 477 570 837
1203 1072 1885 45 132 111 341 116 372 1 7 7 29 14 48 6 19 14 46 16 60 3 14
15 66 27 115 11 50 23 101 25 115 3 14 7 33 10 43 3 10 7 31 9 48 3 17 7 38 9
48 3 9 8 31 11 49 3 17 7 44 10 60 24 146 43 287 51 377 3 33 7 76 9 95 28
228 27 826 -1 1095 -8 82 -25 228 -30 260 -3 17 -7 44 -9 60 -73 498 -236
1081 -415 1480 -9 22 -32 74 -51 115 -46 105 -206 418 -266 520 -182 311 -382
597 -599 856 -140 168 -175 206 -384 414 -387 388 -823 716 -1320 994 -65 37
-384 195 -471 234 -208 93 -614 239 -814 292 -290 77 -515 125 -730 155 -22 3
-51 8 -65 10 -14 3 -50 7 -80 10 -30 3 -71 8 -90 10 -19 2 -67 7 -105 10 -39
4 -90 9 -115 11 -50 6 -706 14 -712 9z"/>
</g>
</svg>
